<?xml version="1.0" standalone="no"?><svg xmlns="http://www.w3.org/2000/svg" viewBox="0 0 1440 320"><path fill="#ffd700" fill-opacity="0.3" d="M0,32L21.8,48C43.6,64,87,96,131,96C174.5,96,218,64,262,53.3C305.5,43,349,53,393,90.7C436.4,128,480,192,524,197.3C567.3,203,611,149,655,138.7C698.2,128,742,160,785,192C829.1,224,873,256,916,256C960,256,1004,224,1047,218.7C1090.9,213,1135,235,1178,250.7C1221.8,267,1265,277,1309,261.3C1352.7,245,1396,203,1418,181.3L1440,160L1440,0L1418.2,0C1396.4,0,1353,0,1309,0C1265.5,0,1222,0,1178,0C1134.5,0,1091,0,1047,0C1003.6,0,960,0,916,0C872.7,0,829,0,785,0C741.8,0,698,0,655,0C610.9,0,567,0,524,0C480,0,436,0,393,0C349.1,0,305,0,262,0C218.2,0,175,0,131,0C87.3,0,44,0,22,0L0,0Z"></path></svg>